<svg id="Layer_1" height="512" viewBox="0 0 512 512" width="512" xmlns="http://www.w3.org/2000/svg" data-name="Layer 1"><path d="m271 79.146c-4.945-.42-9.946-.646-15-.646a175.6 175.6 0 0 0 0 351.2c5.054 0 10.055-.226 15-.645a175.609 175.609 0 0 1 0-349.909z" fill="#d4e1f4"/><g fill="#0635c9"><path d="m371 229.967-91.36 14.348a25.554 25.554 0 0 0 -40.771-9.216l-51.518-35.28a6 6 0 0 0 -6.78 9.9l51.519 35.281a25.584 25.584 0 1 0 49.41 11.171l91.367-14.349a6 6 0 1 0 -1.867-11.855zm-115 37.74a13.606 13.606 0 1 1 13.586-13.607 13.611 13.611 0 0 1 -13.586 13.607z"/><path d="m256 71.917c-100.355 0-182 81.728-182 182.184s81.645 182.183 182 182.183 182-81.727 182-182.184-81.645-182.183-182-182.183zm151.969 188.083h17.876a170.51 170.51 0 0 1 -45.5 109.91l-12.645-12.619a6.007 6.007 0 0 0 -8.486 8.5l12.653 12.658a169.239 169.239 0 0 1 -109.867 45.679v-18.059a6 6 0 1 0 -12 0v18.059a169.231 169.231 0 0 1 -109.868-45.673l12.653-12.655a6 6 0 1 0 -8.486-8.485l-12.643 12.595a170.506 170.506 0 0 1 -45.501-109.91h17.876a6 6 0 0 0 0-12h-17.876a170.246 170.246 0 0 1 45.5-109.81l12.645 12.67a5.992 5.992 0 1 0 8.484-8.463l-12.653-12.652a169.233 169.233 0 0 1 109.869-45.672v18.06a6 6 0 0 0 12 0v-18.06a169.235 169.235 0 0 1 109.869 45.674l-12.653 12.653a6 6 0 1 0 8.484 8.485l12.644-12.695a170.246 170.246 0 0 1 45.501 109.81h-17.876a6 6 0 0 0 0 12z"/><path d="m231.689 141.159a6.06 6.06 0 0 0 1.2-.12c1.944-.393 3.926-.742 5.887-1.034a6 6 0 0 0 -1.776-11.869c-2.166.323-4.353.707-6.5 1.141a6 6 0 0 0 1.184 11.882z"/><path d="m213.878 140.056a6 6 0 0 0 -7.87-3.171 127.9 127.9 0 0 0 -74.893 90.515 6 6 0 1 0 11.729 2.534 115.893 115.893 0 0 1 67.863-82 6 6 0 0 0 3.171-7.878z"/></g><path d="m371.592 27.9a6 6 0 0 0 0 8.487l46.624 46.625-14.489 15.231a214.468 214.468 0 0 0 -295.453 0l-14.488-15.235 46.624-46.625a6 6 0 0 0 0-8.487 78.339 78.339 0 0 0 -110.61.004 78.336 78.336 0 0 0 0 110.611 6 6 0 0 0 4.243 1.759 6 6 0 0 0 4.243-1.758l47.014-47.012 14.511 15.258a214.991 214.991 0 0 0 4.422 299.265 217.014 217.014 0 0 0 31.617 26.17l-34.6 34.6a23.556 23.556 0 0 0 33.311 33.307l45.092-45.092a216.057 216.057 0 0 0 152.7 0l45.086 45.092a23.556 23.556 0 0 0 33.313-33.313l-34.6-34.6a216.908 216.908 0 0 0 31.617-26.17 214.991 214.991 0 0 0 4.422-299.265l14.509-15.252 47.015 47.015a6 6 0 0 0 8.487 0 78.215 78.215 0 0 0 -110.61-110.615zm-337.359 97.7a66.215 66.215 0 0 1 93.256-93.258zm91.843 366.024a11.556 11.556 0 0 1 -16.344-16.342l36.468-36.482a212.159 212.159 0 0 0 21.468 11.22zm276.192-16.342a11.556 11.556 0 0 1 -16.343 16.343l-41.594-41.594a211.932 211.932 0 0 0 21.469-11.231zm-146.268-18.334c-111.73 0-202.63-91-202.63-202.847s90.9-202.848 202.63-202.848 202.63 91 202.63 202.848-90.9 202.847-202.63 202.847zm221.767-331.357-93.256-93.258a66.215 66.215 0 0 1 93.256 93.258z" fill="#1ae5be"/></svg>