<svg id="_x33_0" enable-background="new 0 0 64 64" height="512" viewBox="0 0 64 64" width="512" xmlns="http://www.w3.org/2000/svg" xmlns:xlink="http://www.w3.org/1999/xlink"><linearGradient id="SVGID_1_" gradientUnits="userSpaceOnUse" x1="32" x2="32" y1="63" y2=".786"><stop offset="0" stop-color="#9f2fff"/><stop offset="1" stop-color="#0bb1d3"/></linearGradient><path d="m38.553 28.105.895 1.789-1.117.559c-.717.358-1.518.547-2.318.547-2.232 0-4.208-1.423-4.914-3.542l-.048-.144 1.898-.629.047.142c.434 1.299 1.646 2.173 3.017 2.173.491 0 .983-.116 1.423-.336zm24.447 33.895v1h-37v-1c0-2.231 1.24-4.238 3.236-5.236l7.105-3.553c1.023-.511 1.659-1.54 1.659-2.683v-2.06l-.014.004c-1.224.35-2.492.528-3.767.528-2.878 0-5.219-2.341-5.219-5.219 0-.919.623-1.717 1.516-1.94l.969-.243c.78-.194 1.354-.828 1.486-1.598h-2.971c-1.103 0-2-.897-2-2v-1.088c-1.173-.207-2.274-.772-3.121-1.619l-1.138-1.138 2.404-4.007c.559-.932.854-2 .854-3.087v-2.232c0-1.359.358-2.693 1.023-3.865-1.069-.512-2.059-1.196-2.921-2.059-1.993-1.997-3.089-4.649-3.084-7.47.009-4.836 3.291-9.036 7.981-10.213l1.729-.435.242.971c.478 1.906 2.182 3.236 4.146 3.236h.007l6.459-.003c11.259-.001 20.419 9.159 20.419 20.419 0 5.741-2.437 11.248-6.684 15.109l-4.316 3.923v3.996c0 1.831.998 3.513 2.605 4.39l4.361 2.379c2.489 1.356 4.034 3.959 4.034 6.793zm-7.472-3h-1.057c-1.777 0-3.419.739-4.58 2h10.216c-1.159-1.261-2.802-2-4.579-2zm-29.011-41.509c1.615 1.618 3.763 2.509 6.049 2.509h.262c1.626 0 3.013-1.187 3.158-2.702.082-.86-.19-1.682-.766-2.315-.567-.625-1.376-.983-2.22-.983v-2c1.405 0 2.755.597 3.7 1.637s1.411 2.443 1.276 3.851c-.063.662-.271 1.283-.582 1.844l1.813.259c2.135.305 4.073 1.275 5.605 2.808 1.396 1.396 2.305 3.094 2.679 4.963l.185.923c.444-.187.924-.285 1.419-.285 1.57 0 2.959 1.001 3.456 2.49l.166.497c.187.563.283 1.151.283 1.748 0 1.731-.827 3.385-2.212 4.424l-1.521 1.141 2.036 4.073 3.667-3.333c3.833-3.484 6.03-8.452 6.03-13.63 0-10.157-8.263-18.42-18.419-18.42l-6.457.003c-.003 0-.006 0-.009 0-2.543 0-4.79-1.52-5.765-3.798-3.729 1-6.326 4.369-6.333 8.242-.003 2.286.884 4.436 2.5 6.054zm13.483 30.406v2.631c0 .991-.291 1.926-.805 2.718.589 1.066 1.725 1.754 2.967 1.754 2.337 0 4.645-.613 6.674-1.772l2.14-1.223c-.628-1.061-.976-2.288-.976-3.567v-4.202l-3.268-6.535 2.856-2.142c.885-.663 1.412-1.719 1.412-2.824 0-.381-.061-.756-.181-1.115l-.166-.497c-.223-.671-.85-1.123-1.558-1.123-.438 0-.852.171-1.162.481l-1.547 1.547-.854-4.274c-.297-1.48-1.017-2.826-2.082-3.891-1.273-1.274-2.82-2.049-4.524-2.292l-3.198-.457c-.836.552-1.832.886-2.9.886h-.262c-.893 0-1.765-.122-2.608-.336-.61.94-.958 2.036-.958 3.165v2.232c0 1.45-.394 2.873-1.14 4.116l-1.602 2.668.034.034c.714.712 1.7 1.121 2.708 1.121h1v3h5v1.658c0 1.839-1.246 3.435-3.03 3.88l-.969.243c-.001 1.775 1.443 3.219 3.218 3.219 1.09 0 2.172-.152 3.219-.451l5.288-1.511.549 1.923zm-11.87 13.103h19.302c1.485-2.475 4.117-4 7.04-4h1.057c1.341 0 2.615.335 3.755.918-.375-.37-.798-.697-1.273-.956l-4.361-2.379c-.512-.279-.973-.623-1.39-1.008l-2.43 1.389c-2.333 1.332-4.983 2.036-7.668 2.036-1.779 0-3.41-.895-4.403-2.309-.168.111-.34.217-.523.309l-7.105 3.553c-1.007.503-1.722 1.396-2.001 2.447zm-20.13-21h16v-2h-16c-2.757 0-5-2.243-5-5s2.243-5 5-5c1.654 0 3 1.346 3 3s-1.346 3-3 3h-1v2h1c2.757 0 5-2.243 5-5s-2.243-5-5-5c-3.859 0-7 3.14-7 7s3.141 7 7 7zm4 4h12v-2h-12c-2.757 0-5 2.243-5 5s2.243 5 5 5c1.654 0 3-1.346 3-3s-1.346-3-3-3h-1v2h1c.552 0 1 .449 1 1s-.448 1-1 1c-1.654 0-3-1.346-3-3s1.346-3 3-3z" fill="url(#SVGID_1_)"/></svg>