<svg id="Capa_1" enable-background="new 0 0 512 512" height="512" viewBox="0 0 512 512" width="512" xmlns="http://www.w3.org/2000/svg"><g><g><path d="m110.934 408.583v54c0 5.79 4.71 10.5 10.5 10.5h86c5.79 0 10.5-4.71 10.5-10.5v-54c0-5.79-4.71-10.5-10.5-10.5h-86c-5.79 0-10.5 4.71-10.5 10.5zm15 4.5h77v45h-77z"/><path d="m179.434 375.083h-30c-4.143 0-7.5 3.358-7.5 7.5s3.357 7.5 7.5 7.5h30c4.143 0 7.5-3.358 7.5-7.5s-3.358-7.5-7.5-7.5z"/><path d="m212.434 140.5c-4.143 0-7.5 3.358-7.5 7.5v21c0 4.142 3.357 7.5 7.5 7.5s7.5-3.358 7.5-7.5v-21c0-4.142-3.358-7.5-7.5-7.5z"/><path d="m302.434 176.5c4.143 0 7.5-3.358 7.5-7.5v-21c0-4.142-3.357-7.5-7.5-7.5s-7.5 3.358-7.5 7.5v21c0 4.142 3.357 7.5 7.5 7.5z"/><path d="m491.434 405.5c4.143 0 7.5-3.358 7.5-7.5v-44c0-20.678-16.822-37.5-37.5-37.5h-6.5v-14.5c0-6.21-4.557-11.363-10.5-12.325v-19.175h.893l25.803 25.803c1.465 1.464 3.385 2.197 5.304 2.197s3.839-.732 5.304-2.197c2.929-2.929 2.929-7.678 0-10.606l-15.197-15.197h6.893c5.79 0 10.5-4.71 10.5-10.5v-22c0-5.79-4.71-10.5-10.5-10.5h-65c-10.201 0-18.5 8.299-18.5 18.5v6c0 8.827 6.218 16.218 14.5 18.052v19.623c-4.421.716-8.071 3.752-9.652 7.815h-91.944v-11.56c27.304-8.599 48.428-31.248 54.892-59.43h5.705c20.678 0 37.5-16.822 37.5-37.5v-11.165c0-10.71-4.52-20.378-11.744-27.218v-36.638c-.002-62.848-51.132-113.979-113.981-113.979h-35.553c-62.849 0-113.979 51.131-113.979 113.979v36.638c-7.224 6.84-11.744 16.508-11.744 27.218v11.165c0 20.678 16.822 37.5 37.5 37.5h5.705c6.464 28.182 27.588 50.831 54.892 59.43v11.561h-24.031c-4.143 0-7.5 3.358-7.5 7.5s3.357 7.5 7.5 7.5h26.198l35.736 102.776v81.733h-169.978v-24.042c10.652-1.134 18.978-10.169 18.978-21.116 0-4.666-1.489-9.069-4.202-12.683 2.714-3.616 4.202-8.019 4.202-12.684 0-4.666-1.49-9.071-4.201-12.685 2.713-3.615 4.201-8.018 4.201-12.682 0-4.667-1.489-9.071-4.201-12.684 2.713-3.616 4.201-8.019 4.201-12.683 0-10.947-8.326-19.982-18.978-21.116v-36.158c5.851-3.777 12.812-5.977 20.279-5.977h52.765c4.143 0 7.5-3.358 7.5-7.5s-3.357-7.5-7.5-7.5h-52.765c-7.188 0-14.037 1.462-20.279 4.091v-59.081c0-6.893-5.607-12.5-12.5-12.5h-22.912c-6.893 0-12.5 5.607-12.5 12.5v114.445c-11.142 4.721-18.978 15.768-18.978 28.611v56.472c0 12.843 7.836 23.89 18.978 28.611v28.861c0 6.893 5.607 12.5 12.5 12.5h441.89c6.893 0 12.5-5.607 12.5-12.5v-66.5c0-4.142-3.357-7.5-7.5-7.5s-7.5 3.358-7.5 7.5v24.5h-75v-126h52.5c12.406 0 22.5 10.093 22.5 22.5v44c0 4.142 3.357 7.5 7.5 7.5zm-444.39-160.5h17.912v80.5h-17.912zm0 95.5h17.912v14.001l-17.912-.001zm17.912 156.5h-17.912v-23.917h17.912zm-20.835-38.917c-8.853 0-16.055-7.202-16.055-16.055v-56.472c0-8.853 7.202-16.056 16.055-16.056l33.571.001c3.441 0 6.241 2.799 6.241 6.24 0 2-.896 3.772-2.528 4.995-2.405 1.807-3.842 4.681-3.842 7.689s1.437 5.883 3.851 7.695c1.625 1.217 2.52 2.988 2.52 4.988 0 1.999-.896 3.771-2.521 4.989-2.411 1.805-3.85 4.682-3.85 7.694 0 3.005 1.435 5.878 3.848 7.693 1.627 1.219 2.522 2.991 2.522 4.991s-.896 3.772-2.531 4.998c-2.404 1.807-3.839 4.68-3.839 7.686 0 3.011 1.438 5.886 3.85 7.695 1.625 1.217 2.521 2.989 2.521 4.988 0 3.441-2.8 6.241-6.241 6.241zm341.813-280.248v11.165c0 12.407-10.094 22.5-22.5 22.5h-3.694c.047-1.059.081-2.121.081-3.192v-52.973h3.613c12.406 0 22.5 10.094 22.5 22.5zm-234.5 33.665c-12.406 0-22.5-10.093-22.5-22.5v-11.165c0-12.407 10.094-22.5 22.5-22.5h3.613v52.973c0 1.07.034 2.133.081 3.192zm122.566-126.608h-82.801c-19.935 0-36.152 16.217-36.152 36.151v19.292h-3.613c-3.738 0-7.347.557-10.756 1.58v-27.936c0-54.577 44.402-98.979 98.979-98.979h35.553c54.577 0 98.979 44.402 98.979 98.979v27.936c-3.409-1.023-7.018-1.58-10.756-1.58h-3.613v-19.292c0-19.934-16.218-36.151-36.152-36.151h-14.668c-4.143 0-7.5 3.358-7.5 7.5s3.357 7.5 7.5 7.5h14.668c11.663 0 21.152 9.488 21.152 21.151v84.178h-29.99c-13.398-14.06-34.217-22.416-56.582-22.616l6.201-16.396c1.465-3.875-.488-8.203-4.362-9.668-3.875-1.466-8.202.487-9.669 4.362l-8.725 23.073c-16.508 2.924-31.3 10.377-41.656 21.244h-29.989v-84.178c0-11.663 9.489-21.151 21.152-21.151h82.8c4.143 0 7.5-3.358 7.5-7.5s-3.357-7.499-7.5-7.499zm-102.861 135.329h32.238c2.208 0 4.304-.973 5.729-2.659 10.569-12.508 28.636-19.976 48.328-19.976s37.759 7.467 48.327 19.975c1.425 1.687 3.521 2.66 5.729 2.66h32.239c-5.631 30.921-32.743 54.443-65.264 54.443h-42.061c-32.522 0-59.634-23.523-65.265-54.443zm55.891 83.503v-14.615c3.077.355 6.202.555 9.373.555h42.061c3.171 0 6.296-.2 9.373-.555v14.615l-9.247 26.595c-13.883 2.877-28.429 2.877-42.312 0zm14.868 42.76c10.281 1.351 20.789 1.351 31.07 0l-15.535 44.679zm152.036 150.516h-129v-81.733l35.736-102.776h93.264zm90-24.5v24.5h-75v-24.5zm-75.5-217c-1.93 0-3.5-1.57-3.5-3.5v-6c0-1.93 1.57-3.5 3.5-3.5h60.5v13zm21 15v19h-10v-19zm10.5 46h-31v-12h31z"/></g></g></svg>