<svg id="nose" enable-background="new 0 0 300 300" height="512" viewBox="0 0 300 300" width="512" xmlns="http://www.w3.org/2000/svg"><g><circle cx="137.378" cy="81.397" r="4"/><path d="m126.026 198.413c-6.176 0-14.73-11.627-14.73-33.459 0-2.656 7.121-9.889 12.324-15.17 4.105-4.17 8.758-8.896 12.84-13.84 26.938-32.602 67.004-75.525 67.406-75.955 1.508-1.613 1.422-4.145-.191-5.652-1.609-1.506-4.148-1.43-5.652.191-.402.432-40.637 43.529-67.727 76.322-3.863 4.674-8.191 9.07-12.379 13.32-8.488 8.621-14.621 14.85-14.621 20.783 0 26.928 11.711 41.459 22.73 41.459 11.648 0 38.141 5.564 38.141 14.73 0 5.553-3.871 11.623-7.617 17.494-4.652 7.295-9.465 14.84-6.008 21.754.703 1.402 2.113 2.211 3.582 2.211.602 0 1.211-.135 1.785-.422 1.977-.988 2.777-3.391 1.789-5.367-1.43-2.857 2.145-8.459 5.598-13.875 4.156-6.52 8.871-13.908 8.871-21.795 0-18.778-38.551-22.729-46.141-22.729z"/><path d="m199.12 203.06c.652-1.424.41-3.098-.613-4.281-15.773-18.211-25.965-24.834-33.07-21.516-7.809 3.664-6.02 17.096-5.582 19.752.355 2.178 2.375 3.66 4.598 3.297 2.18-.359 3.652-2.418 3.293-4.598-.793-4.826-.234-10.586 1.09-11.207.039-.023 3.926-1.547 17.641 12.891h-5.098c-2.211 0-4 1.791-4 4s1.789 4 4 4h14.105c1.566-.001 2.988-.915 3.636-2.338z"/><path d="m217.839 175.485c-.652-2.109-2.891-3.307-5-2.646-2.113.648-3.297 2.887-2.648 4.998 5.84 18.975 5.574 32.535-.77 39.219-7.754 8.164-22.805 4.529-23.055 4.465-2.137-.537-4.312.746-4.863 2.885-.547 2.139.742 4.318 2.883 4.867.363.094 4.477 1.113 9.891 1.113 6.508 0 14.891-1.473 20.91-7.787 8.601-9.022 9.496-24.873 2.652-47.114z"/><path d="m105.378 53.397c2.211 0 4-1.791 4-4v-8c0-2.209-1.789-4-4-4s-4 1.791-4 4v8c0 2.209 1.789 4 4 4z"/><path d="m109.378 73.397v-8c0-2.209-1.789-4-4-4s-4 1.791-4 4v8c0 2.209 1.789 4 4 4s4-1.791 4-4z"/><path d="m89.378 61.397h8c2.211 0 4-1.791 4-4s-1.789-4-4-4h-8c-2.211 0-4 1.791-4 4s1.789 4 4 4z"/><path d="m113.378 61.397h8c2.211 0 4-1.791 4-4s-1.789-4-4-4h-8c-2.211 0-4 1.791-4 4s1.789 4 4 4z"/><path d="m95.784 100.862c-2.91-1.555-6.246-1.885-9.398-.928-3.152.955-5.746 3.082-7.301 5.988s-1.887 6.244-.93 9.398 3.082 5.746 5.988 7.301c1.816.971 3.801 1.465 5.805 1.465 1.203 0 2.41-.178 3.594-.537 3.156-.955 5.75-3.082 7.305-5.988 1.551-2.906 1.883-6.244.926-9.398s-3.083-5.746-5.989-7.301zm-1.992 12.926c-.547 1.021-1.461 1.77-2.57 2.105-2.281.688-4.719-.6-5.41-2.893-.336-1.109-.219-2.283.328-3.305s1.457-1.77 2.566-2.105c.418-.127.84-.189 1.266-.189.703 0 1.398.174 2.039.516 1.02.547 1.77 1.457 2.105 2.566s.223 2.284-.324 3.305z"/></g></svg>