<svg id="Capa_1" enable-background="new 0 0 512.316 512.316" height="512" viewBox="0 0 512.316 512.316" width="512" xmlns="http://www.w3.org/2000/svg"><g><path d="m379.3 0h-11.997c-6.952 0-12.948 4.11-15.73 10.019h-40.181c-4.143 0-7.5 3.357-7.5 7.5s3.357 7.5 7.5 7.5h38.518v30.604h-14.666c-32.774 0-69.827 24.579-70.595 59.849-.001.055-.002.108-.002.163v13.026h-75.99v-13.024c0-.055 0-.108-.002-.163-.602-27.719-21.417-49.638-30.337-57.775-.918-.838-1.445-2.037-1.445-3.291v-24.917c0-2.466 2.006-4.473 4.473-4.473h115.068c4.143 0 7.5-3.357 7.5-7.5s-3.357-7.5-7.5-7.5h-115.069c-10.737 0-19.473 8.735-19.473 19.473v24.916c0 5.461 2.31 10.699 6.336 14.373 7.485 6.827 24.933 25.056 25.448 46.941v12.939h-3.775c-9.94 0-18.027 8.087-18.027 18.026v21.984c0 7.054 4.083 13.159 10.002 16.118-1.523 5.393-3.461 10.686-5.81 15.802-1.729 3.765-.078 8.218 3.687 9.945 3.764 1.73 8.217.078 9.945-3.686 2.987-6.507 5.405-13.262 7.215-20.153h100.354c4.648 17.636 15.079 41.088 38.354 62.311 5.029 4.586 7.914 11.069 7.914 17.789v28.529c-2.473.231-5.133.343-8.158.343-10.076 0-14.985-1.28-20.183-2.636-5.61-1.462-11.968-3.12-23.967-3.12s-18.357 1.658-23.967 3.12c-5.197 1.355-10.106 2.636-20.182 2.636-10.069 0-14.977-1.28-20.172-2.635-5.609-1.463-11.967-3.121-23.967-3.121s-18.358 1.658-23.968 3.121c-5.195 1.354-10.102 2.635-20.171 2.635-3.026 0-5.686-.115-8.159-.347v-28.525c0-6.72 2.885-13.203 7.914-17.789 3.29-2.999 6.444-6.157 9.437-9.453l1.988-2.244c2.747-3.101 2.46-7.841-.64-10.587-3.101-2.749-7.84-2.461-10.587.64l-1.927 2.176c-2.615 2.88-5.434 5.701-8.377 8.385-8.14 7.421-12.808 17.945-12.808 28.873v215.928c0 16.316 13.274 29.591 29.59 29.591h163.714c16.315 0 29.59-13.274 29.59-29.591v-215.927c0-10.928-4.668-21.451-12.807-28.873-19.806-18.059-29.093-37.84-33.429-53.134 5.919-2.959 10.003-9.063 10.003-16.119v-21.984c0-9.939-8.087-18.026-18.026-18.026h-4.611v-12.94c.211-8.8 3.749-16.838 9.336-23.614 5.746 14.435 12.093 26.769 19.388 37.752 9.316 14.027 20.304 25.827 32.658 35.07 3.046 2.279 6.544 3.411 10.027 3.411 3.808 0 7.6-1.353 10.766-4.039 6.098-5.176 7.716-13.428 4.034-20.518l-.143-.275c-9.987-19.339-18.24-40.88-24.532-64.024l-.673-2.463c-.581-2.12-1.16-4.257-1.716-6.398h12.78c2.782 5.909 8.778 10.019 15.73 10.019h12c9.591 0 17.394-7.803 17.394-17.394v-45.855c0-9.591-7.803-17.394-17.394-17.394zm-70.373 497.316h-163.714c-8.045 0-14.59-6.545-14.59-14.591l.002-172.345c2.546.194 5.242.289 8.156.289 11.993 0 18.349-1.657 23.957-3.12 5.197-1.355 10.106-2.636 20.183-2.636 10.076 0 14.985 1.28 20.182 2.636 5.608 1.463 11.964 3.12 23.957 3.12 11.999 0 18.357-1.658 23.966-3.12 5.198-1.355 10.106-2.636 20.183-2.636 10.075 0 14.984 1.28 20.182 2.635 5.61 1.463 11.969 3.121 23.968 3.121 2.914 0 5.609-.095 8.156-.289l.002 172.345c0 8.046-6.545 14.591-14.59 14.591zm-29.154-346.953v-6.702h4.485c1.669 0 3.026 1.357 3.026 3.026v21.984c0 1.669-1.357 3.026-3.026 3.026h-114.376c-1.669 0-3.027-1.357-3.027-3.026v-21.984c0-1.669 1.358-3.026 3.027-3.026h4.485v6.702c0 4.143 3.358 7.5 7.5 7.5s7.5-3.357 7.5-7.5v-6.702h15.135v6.702c0 4.143 3.358 7.5 7.5 7.5s7.5-3.357 7.5-7.5v-6.702h15.135v6.702c0 4.143 3.358 7.5 7.5 7.5s7.5-3.357 7.5-7.5v-6.702h15.135v6.702c0 4.143 3.357 7.5 7.5 7.5s7.501-3.357 7.501-7.5zm72.597-.002.165.318c.181.348.659 1.27-.419 2.185-1.02.866-1.776.296-2.101.056-10.978-8.213-20.784-18.764-29.149-31.359-7.552-11.37-14.044-24.42-19.928-40.137 6.828-4.575 14.697-7.883 22.695-9.554.778 3.129 1.606 6.188 2.408 9.115l.666 2.437c6.569 24.16 15.208 46.693 25.663 66.939zm29.324-87.113c0 1.319-1.074 2.394-2.394 2.394h-11.997c-1.319 0-2.394-1.074-2.394-2.394v-45.854c0-1.319 1.074-2.394 2.394-2.394h11.997c1.319 0 2.394 1.074 2.394 2.394z"/></g></svg>