<?xml version="1.0" encoding="iso-8859-1"?>
<!-- Generator: Adobe Illustrator 19.0.0, SVG Export Plug-In . SVG Version: 6.00 Build 0)  -->
<svg version="1.1" id="Capa_1" xmlns="http://www.w3.org/2000/svg" xmlns:xlink="http://www.w3.org/1999/xlink" x="0px" y="0px"
	 viewBox="0 0 496 496" style="enable-background:new 0 0 496 496;" xml:space="preserve">
<polyline style="fill:#A6A6A6;" points="304,8 416,8 416,40 336,40 "/>
<path d="M416,48h-80V32h72V16H304V0h112c4.8,0,8,3.2,8,8v32C424,44.8,420.8,48,416,48z"/>
<polyline style="fill:#7D828C;" points="312,200 312,168 424,168 424,200 "/>
<path d="M432,200h-16v-24h-96v24h-16v-32c0-4.8,3.2-8,8-8h112c4.8,0,8,3.2,8,8V200z"/>
<rect x="256" y="312" style="fill:#A6A6A6;" width="224" height="144"/>
<path d="M480,464H256c-4.8,0-8-3.2-8-8V312c0-4.8,3.2-8,8-8h224c4.8,0,8,3.2,8,8v144C488,460.8,484.8,464,480,464z M264,448h208V320
	H264V448z"/>
<polyline style="fill:#5C6373;" points="240,72 304,8 336,40 272,104 "/>
<path d="M277.6,109.6l-11.2-11.2L324.8,40L304,19.2l-58.4,58.4l-11.2-11.2l64-64c3.2-3.2,8-3.2,11.2,0l32,32c3.2,3.2,3.2,8,0,11.2
	L277.6,109.6z"/>
<circle style="fill:#656A73;" cx="448" cy="448" r="40"/>
<path d="M448,496c-26.4,0-48-21.6-48-48s21.6-48,48-48s48,21.6,48,48S474.4,496,448,496z M448,416c-17.6,0-32,14.4-32,32
	s14.4,32,32,32s32-14.4,32-32S465.6,416,448,416z"/>
<circle style="fill:#656A73;" cx="288" cy="456" r="32"/>
<path d="M288,496c-22.4,0-40-17.6-40-40s17.6-40,40-40s40,17.6,40,40S310.4,496,288,496z M288,432c-13.6,0-24,10.4-24,24
	s10.4,24,24,24s24-10.4,24-24l0,0C312,442.4,301.6,432,288,432z"/>
<path style="fill:#5C6373;" d="M336,200h64c44,0,80,36,80,80l0,0l0,0H256l0,0l0,0C256,236,292,200,336,200z"/>
<path d="M480,288H256c-4.8,0-8-3.2-8-8c0-48.8,39.2-88,88-88h64c48.8,0,88,39.2,88,88C488,284.8,484.8,288,480,288z M264.8,272H472
	c-4-36.8-35.2-64-71.2-64h-64C299.2,208,268.8,235.2,264.8,272z"/>
<path d="M296,424h-16v-32c0-4.8,3.2-8,8-8h160c4.8,0,8,3.2,8,8v16h-16v-8H296V424z"/>
<polyline style="fill:#5C6373;" points="416,312 416,360 480,360 480,312 416,312 "/>
<path d="M480,368h-64c-4.8,0-8-3.2-8-8v-48c0-4.8,3.2-8,8-8h64c4.8,0,8,3.2,8,8v48C488,364.8,484.8,368,480,368z M424,352h48v-32
	h-48V352z"/>
<rect x="440" y="440" width="16" height="16"/>
<rect x="280" y="448" width="16" height="16"/>
<path d="M365.6,173.6l-11.2-11.2l40-40c1.6-1.6,3.2-2.4,5.6-2.4h52.8L480,92.8V59.2L452.8,32H416V16h40c2.4,0,4,0.8,5.6,2.4l32,32
	c1.6,1.6,2.4,3.2,2.4,5.6v40c0,2.4-0.8,4-2.4,5.6l-32,32c-1.6,1.6-3.2,2.4-5.6,2.4h-52.8L365.6,173.6z"/>
<circle style="fill:#A6A6A6;" cx="24" cy="344" r="16"/>
<path d="M24,368c-13.6,0-24-10.4-24-24s10.4-24,24-24s24,10.4,24,24S37.6,368,24,368z M24,336c-4.8,0-8,3.2-8,8s3.2,8,8,8s8-3.2,8-8
	S28.8,336,24,336z"/>
<circle style="fill:#5C6373;" cx="32" cy="464" r="24"/>
<path d="M32,496c-17.6,0-32-14.4-32-32s14.4-32,32-32s32,14.4,32,32S49.6,496,32,496z M32,448c-8.8,0-16,7.2-16,16s7.2,16,16,16
	s16-7.2,16-16S40.8,448,32,448z"/>
<circle style="fill:#A6A6A6;" cx="72" cy="392" r="16"/>
<path d="M72,416c-13.6,0-24-10.4-24-24s10.4-24,24-24s24,10.4,24,24S85.6,416,72,416z M72,384c-4.8,0-8,3.2-8,8s3.2,8,8,8s8-3.2,8-8
	S76.8,384,72,384z"/>
<circle style="fill:#A6A6A6;" cx="144" cy="416" r="16"/>
<path d="M144,440c-13.6,0-24-10.4-24-24s10.4-24,24-24s24,10.4,24,24S157.6,440,144,440z M144,408c-4.8,0-8,3.2-8,8s3.2,8,8,8
	s8-3.2,8-8S148.8,408,144,408z"/>
<circle style="fill:#5C6373;" cx="152" cy="336" r="24"/>
<path d="M152,368c-17.6,0-32-14.4-32-32s14.4-32,32-32s32,14.4,32,32S169.6,368,152,368z M152,320c-8.8,0-16,7.2-16,16s7.2,16,16,16
	s16-7.2,16-16S160.8,320,152,320z"/>
<rect x="80" y="432" width="16" height="16"/>
<rect x="112" y="456" width="16" height="16"/>
<rect x="38.913" y="236.917" transform="matrix(-0.7071 0.7071 -0.7071 -0.7071 298.5545 451.7674)" style="fill:#5C6373;" width="33.6" height="101.599"/>
<path d="M80,344c-2.4,0-4-0.8-5.6-2.4l-72-72c-3.2-3.2-3.2-8,0-11.2l24-24c3.2-3.2,8-3.2,11.2,0l72,72c3.2,3.2,3.2,8,0,11.2l-24,24
	C84,343.2,82.4,344,80,344z M19.2,264L80,324.8L92.8,312L32,251.2L19.2,264z"/>
<polygon style="fill:#A6A6A6;" points="104,312 112,264 272,104 240,72 80,232 32,240 "/>
<path d="M104,320c-2.4,0-4-0.8-5.6-2.4l-72-72c-3.2-3.2-3.2-8,0-11.2c0.8-1.6,2.4-2.4,4-2.4l45.6-7.2L234.4,66.4
	c3.2-3.2,8-3.2,11.2,0l32,32c3.2,3.2,3.2,8,0,11.2L119.2,268l-7.2,45.6C111.2,316.8,108,320,104,320z M48.8,245.6L99.2,296l5.6-32.8
	c0-1.6,0.8-3.2,2.4-4L260.8,104L240,83.2L85.6,237.6c-0.8,0.8-2.4,1.6-4,2.4L48.8,245.6z"/>
<rect x="256" y="280" style="fill:#A6A6A6;" width="224" height="32"/>
<path d="M480,320H256c-4.8,0-8-3.2-8-8v-32c0-4.8,3.2-8,8-8h224c4.8,0,8,3.2,8,8v32C488,316.8,484.8,320,480,320z M264,304h208v-16
	H264V304z"/>
<rect x="256" y="312" style="fill:#7D828C;" width="160" height="32"/>
<path d="M416,352H256c-4.8,0-8-3.2-8-8v-32c0-4.8,3.2-8,8-8h160c4.8,0,8,3.2,8,8v32C424,348.8,420.8,352,416,352z M264,336h144v-16
	H264V336z"/>
<g>
</g>
<g>
</g>
<g>
</g>
<g>
</g>
<g>
</g>
<g>
</g>
<g>
</g>
<g>
</g>
<g>
</g>
<g>
</g>
<g>
</g>
<g>
</g>
<g>
</g>
<g>
</g>
<g>
</g>
</svg>
